<svg width="950" height="950" viewBox="0 0 950 950" fill="none" xmlns="http://www.w3.org/2000/svg">
<path d="M214 356V827.999H475H736V356C736 254 646 101 475 101C304 101 214 241 214 356Z" stroke="black" stroke-width="26" stroke-linecap="round"/>
<path d="M315 408C255.991 285.065 365.28 210.492 425.031 198.549C425.98 198.359 426.556 199.491 425.888 200.19C389.142 238.683 341.775 308.267 382 374C415.406 428.59 483.121 443.593 553.097 427.678C554.031 427.465 554.704 428.562 554.08 429.289C489.346 504.82 356.964 495.425 315 408Z" stroke="black" stroke-width="26" stroke-linecap="round"/>
<path d="M689 492C622.667 501.667 508 521.644 419 585C358 628.424 293 684 242 825" stroke="black" stroke-width="26" stroke-linecap="round"/>
<path d="M689 492C627.667 503.667 501.6 553.936 522 665C539.449 760 632 801 665 828" stroke="black" stroke-width="26" stroke-linecap="round"/>
<path d="M590.5 270C576.868 251.5 576 228.5 571 204.5C567.5 222.333 562.53 255.716 550.5 273.5C539 290.5 519 292 489 298C526 305.5 536.625 305.5 550.5 324C560.625 337.5 568.833 375.167 571 393C574.5 374.167 578.5 337 590.5 321C602.5 305 628.5 302 651.5 298C628 293.008 604.132 288.5 590.5 270Z" fill="black" stroke="black" stroke-width="3" stroke-linecap="round"/>
</svg>
