<svg width="1035" height="1024" viewBox="0 0 1035 1024" fill="none" xmlns="http://www.w3.org/2000/svg">
<rect width="1035" height="1024" fill="white"/>
<path d="M253 405V876.999H514H775V405C775 303 685 150 514 150C343 150 253 290 253 405Z" stroke="black" stroke-width="26" stroke-linecap="round"/>
<path d="M354 457C294.991 334.065 404.28 259.492 464.031 247.549C464.98 247.359 465.556 248.491 464.888 249.19C428.142 287.683 380.775 357.267 421 423C454.406 477.59 522.121 492.593 592.097 476.678C593.031 476.465 593.704 477.562 593.08 478.289C528.346 553.82 395.964 544.425 354 457Z" stroke="black" stroke-width="26" stroke-linecap="round"/>
<path d="M728 541C661.667 550.667 547 570.644 458 634C397 677.424 332 733 281 874" stroke="black" stroke-width="26" stroke-linecap="round"/>
<path d="M728 541C666.667 552.667 540.6 602.936 561 714C578.449 809 671 850 704 877" stroke="black" stroke-width="26" stroke-linecap="round"/>
<path d="M629.5 319C615.868 300.5 615 277.5 610 253.5C606.5 271.333 601.53 304.716 589.5 322.5C578 339.5 558 341 528 347C565 354.5 575.625 354.5 589.5 373C599.625 386.5 607.833 424.167 610 442C613.5 423.167 617.5 386 629.5 370C641.5 354 667.5 351 690.5 347C667 342.008 643.132 337.5 629.5 319Z" fill="black" stroke="black" stroke-width="3" stroke-linecap="round"/>
</svg>
